PathFileType	4	(X/Y/Z)	T00_JumpTrial_0-2667.trc
DataRate	CameraRate	NumFrames	NumMarkers	Units	OrigDataRate	OrigDataStartFrame	OrigNumFrames
30	30	6	21	m	30	1666	2667
Frame#	Time	RHip			RKnee			RAnkle			RBigToe			RSmallToe			RHeel			LHip			LKnee			LAnkle			LBigToe			LSmallToe			LHeel			Neck			Head			Nose			RShoulder			RElbow			RWrist			LShoulder			LElbow			LWrist		
		X1	Y1	Z1	X2	Y2	Z2	X3	Y3	Z3	X4	Y4	Z4	X5	Y5	Z5	X6	Y6	Z6	X7	Y7	Z7	X8	Y8	Z8	X9	Y9	Z9	X10	Y10	Z10	X11	Y11	Z11	X12	Y12	Z12	X13	Y13	Z13	X14	Y14	Z14	X15	Y15	Z15	X16	Y16	Z16	X17	Y17	Z17	X18	Y18	Z18	X19	Y19	Z19	X20	Y20	Z20	X21	Y21	Z21
1667	55.56666666666667	-4.525850160432065	0.9596650670918712	-0.06951956106127122	-4.164506336548592	1.875126844221138	-0.14276080999555077	-4.121283517816371	2.649263407068678	-0.11512477477123138	-4.383487485578927	3.1436215367360907	-0.302245182992874	-4.3109128172534446	3.0312335971926725	-0.3849613634913835	-4.131819178530482	2.6952541572535478	-0.02964691501868309	-4.863892626337627	1.0286696669004305	0.532473171652642	-4.718708576201788	1.9679153570067147	0.9357170729949235	-4.31957179667961	2.685009467806169	1.3346055467291715	-4.540324852252983	3.1537818594347136	1.4095388060090994	-4.419032851324997	2.9997151571236222	1.5126439989487939	-3.9996158103109156	2.583536248679931	1.348061792996384	-4.932034509463977	-0.7056007595449432	0.12066570002530579	-5.32402803226832	-1.3427317917572918	0.06294683576409427	-5.464671540164359	-0.875865657873516	-0.040861434659178485	-4.485483676439932	-0.5712154441757219	-0.2701120325069077	-4.167985955531784	-0.10267675240292116	-0.6125048218396556	-3.718870697357605	0.2079992431429361	-0.9968192764777325	-5.309145402798935	-0.4426589848155655	0.5372925454271597	-5.382487892284628	0.23010168429025754	1.0081768784027003	-5.3188823297714345	0.7601054226464539	1.4622179994554718
1668	55.6	-4.43493551886691	0.9532267871968347	-0.008170386885165304	-4.13887456781973	1.8723318947039849	-0.12960779411768167	-4.153934586986388	2.6774757346284526	-0.12040964075972095	-4.320480259372399	3.1096464463339175	-0.2922260309930019	-4.299831644645776	3.0261270734218813	-0.37752416600210004	-4.16773818480917	2.720370136465292	-0.0331924448509139	-4.797996892751902	1.0116076239818947	0.5759445360042488	-4.674313548031167	1.9757555410858543	0.9998508051157879	-4.176186472129653	2.611657427599028	1.373570282273351	-4.488030416844193	3.1435705199690034	1.4405145089158065	-4.4172905594567755	3.0319299791479772	1.559482078449528	-3.967266402427216	2.5430439635029543	1.4004582207057246	-4.979443519012077	-0.6920989836682553	0.1709630341376679	-5.383746345857317	-1.3256689500594083	0.10414789716736245	-5.466022814189499	-0.8688024502114008	0.020291929739034736	-4.600117407691454	-0.5382193144951032	-0.2300306291687913	-4.278889709021938	-0.07764597646354955	-0.5770782483288922	-3.782839801526988	0.22994845902077313	-0.962112752937804	-5.304489861477239	-0.4300533916600091	0.5989451346776918	-5.290019984824355	0.23343372642194535	1.0675239563389816	-5.2218953245206325	0.7448285957689248	1.525588144720102
1669	55.63333333333333	-4.532707763685028	1.0077567617245924	0.039987726891977125	-4.169508501558914	1.8763968730376261	-0.09252540071925251	-4.141852860431913	2.675574338422812	-0.11427184761647577	-4.368975797524571	3.1378540548455303	-0.2946760447718704	-4.305310092410328	3.021624134388116	-0.37582562548434845	-4.16848210215562	2.727773138798689	-0.032386700253765215	-4.9516841293627705	1.0797732968412148	0.6362128131716831	-4.702420598099389	1.9897501028097906	1.031911212627053	-4.079402858202383	2.578437164979573	1.417568854160471	-4.605403074872402	3.222881307354774	1.466633889392831	-4.37622579203461	3.018501397957955	1.5762072799151892	-3.968241342984696	2.5784703355643956	1.4356836969756612	-4.924219502603442	-0.6873264774171666	0.23886502499032855	-5.376704856380237	-1.3118235636813682	0.17330987410826498	-5.588323666518143	-0.8354649839991571	0.0701929722737373	-4.665041148849234	-0.5239315379591273	-0.17734871530605575	-4.251936216479718	-0.0746243592274744	-0.5198992066096652	-3.9265195671866495	0.27522714856576536	-0.9456995095448991	-5.268221115469932	-0.414807369053813	0.6705213624737102	-5.320183288900447	0.2559719631707441	1.1441561824798976	-5.24429157616486	0.7599502517238751	1.5949886654627443
1670	55.666666666666664	-4.6898344543294765	1.0711467754247823	0.07997801298705655	-4.167728284388244	1.8783312917304562	-0.06911148076271223	-4.184005125793657	2.7093544046892357	-0.11550470662222065	-4.285273858537675	3.08202713212886	-0.2869353505539218	-4.264884432148351	2.9958444174729206	-0.37093720458935914	-4.196343393309361	2.7557850829805806	-0.02896886051864266	-4.972437409644103	1.1168011305429868	0.7122279006889087	-4.686088631134758	2.0107232836547535	1.0865219095033782	-3.999712625395878	2.5361636535199708	1.4271452621164618	-4.595406160066798	3.233239279331908	1.4753891305717057	-4.498958453349872	3.118705001718342	1.6049373631977708	-3.754762266730267	2.458618481877784	1.446414660545452	-4.975293256717588	-0.6609520037559428	0.30623634269634276	-5.368355239842193	-1.3034278268656485	0.24261332268694435	-5.711456715130079	-0.7980390652560895	0.12190576315874375	-4.6217019106694925	-0.5250058853507297	-0.10220546778173288	-4.290808938861637	-0.053589854378982296	-0.47055944183693504	-3.99276757704843	0.3024220223431848	-0.9099421136315554	-5.360774295345883	-0.3892916802916844	0.7381253851240912	-5.348328933479302	0.2730049303543589	1.2125764126882437	-5.264102471599629	0.7738159834444577	1.6645840322228642
1671	55.7	-4.741828401210663	1.0951086809533297	0.14096392535800856	-4.382957783492164	1.9858083571890166	-0.05254563998844716	-4.185192794172343	2.7065432048241234	-0.1144527099514317	-4.28834714794305	3.0793772754823507	-0.2860871045293737	-4.219233683853161	2.9670576993843634	-0.36747951516079913	-4.174599355305826	2.7113369384714274	-0.020273750095021532	-4.993242009360557	1.1363494585675986	0.7879643867813579	-4.704468067726298	2.0604320225885555	1.154903499858361	-4.1135057613017825	2.6217995022075327	1.4430046835276253	-4.604747278016818	3.2488423173093843	1.4762660204041442	-4.500297336033273	3.1319249638297535	1.6143065399133463	-3.769574678185594	2.494543405603596	1.4563852107029365	-5.080632941247751	-0.6322459244305246	0.37491693079440824	-5.365121178391873	-1.2932891330703045	0.31112814841722336	-5.703673902197809	-0.7887218666706833	0.2035354536733051	-4.771624642399096	-0.4836136688677967	-0.0500838727573468	-4.314606436551812	-0.03454115089267858	-0.41026366940098785	-4.018693658843607	0.3123946127851873	-0.8449002858030886	-5.344605159704373	-0.38464861602227346	0.8179350639169541	-5.373530663003177	0.28676717291484577	1.289907710703831	-5.205090947314279	0.7803619801091493	1.7426489312697289
1672	55.733333333333334	-4.7184994056246	1.0889617707179078	0.222060427595981	-4.355462301049725	1.9679616543781784	-0.006151970789937194	-4.180425722964533	2.710895415058407	-0.11584719614931786	-4.378673412319818	3.1366073399109418	-0.3027880555716126	-4.315613569189285	3.0266086102678393	-0.38340338289657977	-4.185104485278705	2.700965739945315	-0.016339595956131554	-5.1052149887845575	1.1858883890327454	0.8766286522793022	-4.746148574914301	2.105224382518553	1.2168498382971003	-4.133961377679582	2.6543339718755017	1.4540586662453852	-4.5965669150410235	3.2554957775691546	1.4853249237158341	-4.559824322564778	3.176714784815234	1.6234290751221063	-3.731171877437534	2.4995385976001048	1.4499198169288674	-5.123929781818204	-0.6228685212938884	0.45315987430590887	-5.476768851278647	-1.2732018860558216	0.38077147977837006	-5.759901519124244	-0.775026914987352	0.2850082176678108	-4.817712703522559	-0.4700070058000407	0.032362251142983856	-4.497893223712143	0.03297309164829493	-0.3748954325578101	-4.054590160887878	0.3243814248568689	-0.788721806579775	-5.385970920601089	-0.37555600036252423	0.8924405283683129	-5.330739114599011	0.286715069782572	1.3696483782581357	-5.218466431351879	0.7953794096378607	1.8210629863396355
